<svg width="294" height="59" viewBox="0 0 294 59" fill="none" xmlns="http://www.w3.org/2000/svg">
<path d="M55.4436 6.70505V4.32916H61.585V6.70505H59.8816V15.5631H65.4313V17.939H55.4436V15.5631H57.0843V6.70505H55.4436ZM67.2154 12.7389V17.939H64.4182V12.7389H67.2154ZM81.125 11.4568V13.5996H73.6029V11.4568H81.125ZM83.5368 15.5631H84.5947V17.939H78.3905V15.5631H80.5064L76.8574 5.61125L78.2202 7.09954H76.4629L77.7181 5.61125L74.0691 15.5631H76.2567V17.939H70.2587V15.5631H71.3525L75.7187 4.32916H79.1615L83.5368 15.5631ZM101.709 4.32916H107.295V6.70505H106.21L102.695 17.939H99.2525L95.72 6.70505L97.549 9.80715H95.8635L97.5849 6.70505L93.909 17.939H90.4841L86.9606 6.70505H85.8848V4.32916H91.8559V6.70505H89.9103L93.2635 17.939L91.2641 14.8907H93.398L91.4793 17.939L95.2628 6.70505H93.4966V4.32916H100.122V6.70505H98.4187L102.166 17.939L100.113 14.8907H102.31L100.391 17.939L103.762 6.70505H101.709V4.32916Z" fill="white"/>
<path d="M118.318 17.939L114.49 5.35124L117.134 4.32916L120.201 14.9265L119.465 14.8817L122.666 4.32916L124.719 5.35124L120.864 17.939H118.318ZM110.482 17.939V15.5541H112.114V6.70505H110.482V4.32916H116.955L115.646 6.70505H114.714V15.5541H116.39V17.939H110.482ZM122.756 17.939V15.5541H124.477V6.70505H123.446L122.666 4.32916H128.906V6.70505H127.275V15.5541H128.906V17.939H122.756ZM132.78 6.70505V4.32916H138.867V6.70505H137.218V15.5631H138.867V17.939H132.78V15.5631H134.42V6.70505H132.78ZM149.512 18.1183C148.358 18.1183 147.447 17.8792 146.777 17.401C146.108 16.9229 145.71 16.2206 145.585 15.2941H145.172L145.486 13.7251C145.63 14.3408 146.021 14.8309 146.661 15.1955C147.3 15.5601 148.059 15.7424 148.938 15.7424C149.655 15.7424 150.196 15.6139 150.561 15.3569C150.925 15.0999 151.108 14.7143 151.108 14.2003C151.108 13.8536 151.009 13.5637 150.812 13.3306C150.615 13.0916 150.298 12.8973 149.861 12.7479C149.425 12.5984 148.842 12.4789 148.113 12.3893C146.888 12.2578 145.869 12.0007 145.056 11.6182C144.243 11.2357 143.633 10.7366 143.227 10.121C142.826 9.49933 142.626 8.75519 142.626 7.88851C142.626 6.71701 143 5.79953 143.747 5.13607C144.5 4.46664 145.558 4.13192 146.921 4.13192C147.668 4.13192 148.307 4.23951 148.839 4.45468C149.371 4.66388 149.793 4.98067 150.103 5.40504C150.414 5.82941 150.606 6.35838 150.677 6.99195H151.081L150.758 8.50714C150.632 7.89748 150.262 7.41035 149.646 7.04575C149.031 6.67517 148.295 6.48988 147.441 6.48988C146.825 6.48988 146.347 6.60045 146.006 6.82161C145.671 7.04276 145.504 7.35954 145.504 7.77196C145.504 8.05886 145.603 8.31587 145.8 8.543C146.003 8.77013 146.326 8.96738 146.768 9.13473C147.211 9.30209 147.796 9.44255 148.526 9.55612C149.793 9.71152 150.827 9.97451 151.628 10.3451C152.435 10.7157 153.029 11.2088 153.412 11.8244C153.8 12.4401 153.995 13.1932 153.995 14.0838C153.995 15.3628 153.606 16.355 152.829 17.0603C152.052 17.7656 150.946 18.1183 149.512 18.1183ZM142.68 17.939V13.7251H145.486V17.939H142.68ZM150.758 8.50714V4.32916H153.564V8.50714H150.758Z" fill="#00397B"/>
<path d="M55.2304 28.5047V27.2368H58.5079V28.5047H57.5988V33.232H60.5606V34.5H55.2304V33.232H56.106V28.5047H55.2304ZM61.5127 31.7248V34.5H60.0199V31.7248H61.5127ZM63.2612 28.5047V27.2368H66.5101V28.5047H65.6297V33.232H66.5101V34.5H63.2612V33.232H64.1369V28.5047H63.2612ZM71.9006 34.6196C71.352 34.6196 70.848 34.5287 70.3886 34.3469C69.9293 34.1619 69.5322 33.9019 69.1972 33.567C68.8655 33.2289 68.6071 32.8301 68.4221 32.3708C68.2403 31.9083 68.1494 31.4011 68.1494 30.8492C68.1494 30.3006 68.2387 29.7998 68.4173 29.3468C68.5992 28.8907 68.8496 28.4967 69.1685 28.165C69.4875 27.8333 69.8591 27.5765 70.2834 27.3947C70.7108 27.2128 71.1717 27.1219 71.6662 27.1219C72.1255 27.1219 72.5179 27.2049 72.8432 27.3707C73.1718 27.5334 73.4317 27.7742 73.6231 28.0932C73.8177 28.409 73.9437 28.7998 74.0011 29.2655H74.3552L74.0538 30.1411C73.9294 29.6562 73.6758 29.2703 73.293 28.9832C72.9102 28.6961 72.4509 28.5526 71.915 28.5526C71.4812 28.5526 71.0984 28.6499 70.7666 28.8444C70.4381 29.0358 70.1797 29.3054 69.9915 29.6531C69.8065 29.9976 69.714 30.3963 69.714 30.8492C69.714 31.1937 69.7666 31.5095 69.8719 31.7966C69.9803 32.0837 70.1303 32.3325 70.3217 32.543C70.5162 32.7504 70.7475 32.9099 71.0154 33.0215C71.2834 33.1332 71.5785 33.189 71.9006 33.189C72.2706 33.189 72.6024 33.1172 72.8959 32.9737C73.1925 32.8269 73.4381 32.6212 73.6327 32.3564C73.8273 32.0917 73.9581 31.7807 74.0251 31.4234L75.5562 31.6818C75.4509 32.2719 75.2308 32.7887 74.8959 33.232C74.5641 33.6722 74.1415 34.0136 73.6279 34.256C73.1175 34.4984 72.5418 34.6196 71.9006 34.6196ZM74.0538 30.1411V27.2368H75.5466V30.1411H74.0538ZM82.177 30.2655V31.4186H79.0956V30.2655H82.177ZM83.0143 31.9976H84.5072V34.5H77.4353V33.232H78.3109V28.5047H77.4353V27.2368H84.421V29.7392H82.9282V28.5047H79.8038V33.232H83.0143V31.9976ZM91.9427 34.5L87.7895 27.2368H89.4354L93.5886 34.5H91.9427ZM86.5502 28.5047V27.2368H89.4307L89.1723 29.031H88.6986V33.232H89.5694V34.5H86.5502V33.232H87.4211V28.5047H86.5502ZM91.6986 28.5047V27.2368H94.7178V28.5047H93.847V34.5H92.4785L91.9953 32.5095H92.5695V28.5047H91.6986ZM100.124 34.5957C99.5087 34.5957 99.0223 34.4681 98.665 34.2129C98.3077 33.9577 98.0956 33.5829 98.0286 33.0885H97.8085L97.976 32.2512C98.0525 32.5797 98.2615 32.8413 98.6028 33.0359C98.9441 33.2304 99.3492 33.3277 99.8181 33.3277C100.201 33.3277 100.49 33.2592 100.684 33.122C100.879 32.9848 100.976 32.7791 100.976 32.5048C100.976 32.3198 100.923 32.165 100.818 32.0406C100.713 31.913 100.544 31.8094 100.311 31.7296C100.078 31.6499 99.7671 31.5861 99.3779 31.5382C98.724 31.4681 98.1801 31.3309 97.7463 31.1268C97.3125 30.9226 96.9871 30.6563 96.7702 30.3277C96.5565 29.996 96.4497 29.5988 96.4497 29.1363C96.4497 28.5111 96.649 28.0215 97.0477 27.6674C97.4497 27.3101 98.0143 27.1315 98.7415 27.1315C99.1403 27.1315 99.4816 27.1889 99.7655 27.3037C100.049 27.4154 100.274 27.5844 100.44 27.8109C100.606 28.0374 100.708 28.3197 100.746 28.6578H100.962L100.789 29.4664C100.722 29.1411 100.525 28.8811 100.196 28.6865C99.8676 28.4888 99.4752 28.3899 99.0191 28.3899C98.6905 28.3899 98.4353 28.4489 98.2535 28.5669C98.0749 28.6849 97.9856 28.854 97.9856 29.0741C97.9856 29.2272 98.0382 29.3644 98.1435 29.4856C98.2519 29.6068 98.4242 29.7121 98.6602 29.8014C98.8963 29.8907 99.2089 29.9657 99.598 30.0263C100.274 30.1092 100.826 30.2496 101.254 30.4473C101.684 30.6451 102.002 30.9083 102.206 31.2368C102.413 31.5654 102.517 31.9673 102.517 32.4426C102.517 33.1252 102.309 33.6547 101.895 34.0311C101.48 34.4075 100.89 34.5957 100.124 34.5957ZM96.4784 34.5V32.2512H97.976V34.5H96.4784ZM100.789 29.4664V27.2368H102.287V29.4664H100.789ZM109.092 30.2655V31.4186H106.011V30.2655H109.092ZM109.929 31.9976H111.422V34.5H104.35V33.232H105.226V28.5047H104.35V27.2368H111.336V29.7392H109.843V28.5047H106.719V33.232H109.929V31.9976ZM116.441 34.5V33.232H117.039C117.502 33.232 117.905 33.1316 118.25 32.9306C118.598 32.7296 118.867 32.4505 119.059 32.0933C119.253 31.7328 119.35 31.3181 119.35 30.8492C119.35 30.3867 119.253 29.98 119.059 29.6291C118.867 29.2751 118.598 28.9991 118.25 28.8014C117.905 28.6036 117.502 28.5047 117.039 28.5047H116.441V27.2368H117.059C117.824 27.2399 118.496 27.3947 119.073 27.7009C119.65 28.0071 120.1 28.4313 120.422 28.9736C120.748 29.5159 120.91 30.1411 120.91 30.8492C120.91 31.567 120.748 32.2001 120.422 32.7488C120.1 33.2974 119.65 33.7265 119.073 34.0359C118.496 34.3453 117.824 34.5 117.059 34.5H116.441ZM113.465 34.5V33.232H114.341V28.5047H113.465V27.2368H116.771V28.5047H115.834V33.232H116.771V34.5H113.465ZM132.576 31.0406V32.1842H128.561V31.0406H132.576ZM133.863 33.232H134.427V34.5H131.116V33.232H132.246L130.298 27.921L131.025 28.7152H130.088L130.757 27.921L128.81 33.232H129.978V34.5H126.777V33.232H127.36L129.69 27.2368H131.528L133.863 33.232ZM140.098 27.2368H143.246V28.5047H142.4V31.6339C142.4 32.2496 142.277 32.7791 142.031 33.2225C141.785 33.6659 141.435 34.0072 140.978 34.2464C140.522 34.4856 139.98 34.6053 139.352 34.6053C138.726 34.6053 138.186 34.4856 137.73 34.2464C137.277 34.0072 136.927 33.6659 136.682 33.2225C136.436 32.7791 136.313 32.2496 136.313 31.6339V28.5047H135.466V27.2368H138.739V28.5047H137.84V31.6004C137.84 31.9354 137.902 32.2209 138.026 32.4569C138.151 32.693 138.329 32.8748 138.562 33.0024C138.798 33.1268 139.08 33.189 139.409 33.189C139.741 33.189 140.025 33.1268 140.261 33.0024C140.497 32.8748 140.679 32.693 140.806 32.4569C140.934 32.2177 140.998 31.9322 140.998 31.6004V28.5047H140.098V27.2368ZM152.111 27.2368V29.9354H150.738V28.5047H149.255V33.232H150.13V34.5H146.886V33.232H147.762V28.5047H146.283V29.9354H144.905V27.2368H152.111ZM157.721 34.6196C157.153 34.6196 156.633 34.5287 156.161 34.3469C155.692 34.1651 155.287 33.9067 154.946 33.5718C154.604 33.2336 154.341 32.8349 154.156 32.3756C153.971 31.913 153.879 31.4043 153.879 30.8492C153.879 30.3006 153.971 29.7982 154.156 29.342C154.344 28.8859 154.607 28.492 154.946 28.1602C155.287 27.8285 155.692 27.5717 156.161 27.3899C156.633 27.208 157.153 27.1171 157.721 27.1171C158.288 27.1171 158.807 27.208 159.276 27.3899C159.745 27.5717 160.15 27.8285 160.491 28.1602C160.832 28.492 161.096 28.8859 161.281 29.342C161.466 29.7982 161.558 30.3006 161.558 30.8492C161.558 31.4043 161.466 31.913 161.281 32.3756C161.096 32.8349 160.832 33.2336 160.491 33.5718C160.15 33.9067 159.745 34.1651 159.276 34.3469C158.807 34.5287 158.288 34.6196 157.721 34.6196ZM157.716 33.189C158.169 33.189 158.566 33.0901 158.907 32.8923C159.252 32.6914 159.52 32.4154 159.711 32.0646C159.903 31.7137 159.998 31.3086 159.998 30.8492C159.998 30.3963 159.903 29.9976 159.711 29.6531C159.52 29.3054 159.252 29.0342 158.907 28.8396C158.566 28.6451 158.17 28.5478 157.721 28.5478C157.271 28.5478 156.874 28.6451 156.529 28.8396C156.188 29.0342 155.92 29.3054 155.725 29.6531C155.534 29.9976 155.438 30.3963 155.438 30.8492C155.438 31.3086 155.534 31.7137 155.725 32.0646C155.92 32.4154 156.188 32.6914 156.529 32.8923C156.871 33.0901 157.266 33.189 157.716 33.189ZM167.374 34.5L165.331 27.7822L166.743 27.2368L168.379 32.8923L167.987 32.8684L169.695 27.2368L170.791 27.7822L168.733 34.5H167.374ZM163.193 34.5V33.2273H164.063V28.5047H163.193V27.2368H166.647L165.949 28.5047H165.451V33.2273H166.346V34.5H163.193ZM169.743 34.5V33.2273H170.661V28.5047H170.111L169.695 27.2368H173.025V28.5047H172.154V33.2273H173.025V34.5H169.743ZM178.502 34.6196C177.934 34.6196 177.414 34.5287 176.942 34.3469C176.473 34.1651 176.068 33.9067 175.727 33.5718C175.385 33.2336 175.122 32.8349 174.937 32.3756C174.752 31.913 174.66 31.4043 174.66 30.8492C174.66 30.3006 174.752 29.7982 174.937 29.342C175.125 28.8859 175.389 28.492 175.727 28.1602C176.068 27.8285 176.473 27.5717 176.942 27.3899C177.414 27.208 177.934 27.1171 178.502 27.1171C179.07 27.1171 179.588 27.208 180.057 27.3899C180.526 27.5717 180.931 27.8285 181.272 28.1602C181.614 28.492 181.877 28.8859 182.062 29.342C182.247 29.7982 182.339 30.3006 182.339 30.8492C182.339 31.4043 182.247 31.913 182.062 32.3756C181.877 32.8349 181.614 33.2336 181.272 33.5718C180.931 33.9067 180.526 34.1651 180.057 34.3469C179.588 34.5287 179.07 34.6196 178.502 34.6196ZM178.497 33.189C178.95 33.189 179.347 33.0901 179.688 32.8923C180.033 32.6914 180.301 32.4154 180.492 32.0646C180.684 31.7137 180.779 31.3086 180.779 30.8492C180.779 30.3963 180.684 29.9976 180.492 29.6531C180.301 29.3054 180.033 29.0342 179.688 28.8396C179.347 28.6451 178.952 28.5478 178.502 28.5478C178.052 28.5478 177.655 28.6451 177.31 28.8396C176.969 29.0342 176.701 29.3054 176.507 29.6531C176.315 29.9976 176.22 30.3963 176.22 30.8492C176.22 31.3086 176.315 31.7137 176.507 32.0646C176.701 32.4154 176.969 32.6914 177.31 32.8923C177.652 33.0901 178.047 33.189 178.497 33.189ZM187.036 28.5047V27.2368H187.964C188.723 27.2368 189.32 27.3947 189.754 27.7104C190.187 28.0262 190.404 28.492 190.404 29.1076C190.404 29.7168 190.183 30.1634 189.739 30.4473C189.299 30.7312 188.653 30.8732 187.801 30.8732H185.883V30.2655H187.797C188.052 30.2655 188.258 30.224 188.414 30.1411C188.57 30.055 188.683 29.9433 188.754 29.8062C188.827 29.6658 188.864 29.5143 188.864 29.3516C188.864 29.0709 188.763 28.8604 188.562 28.72C188.361 28.5765 188.092 28.5047 187.754 28.5047H187.036ZM186.94 33.232H187.892C188.269 33.232 188.569 33.1539 188.792 32.9976C189.018 32.8381 189.132 32.61 189.132 32.3134C189.132 32.1826 189.108 32.063 189.06 31.9545C189.012 31.8461 188.937 31.752 188.835 31.6722C188.733 31.5893 188.6 31.5255 188.438 31.4808C188.278 31.4362 188.085 31.4138 187.859 31.4138H185.883V30.6531H187.859C188.312 30.6531 188.712 30.6866 189.06 30.7535C189.411 30.8205 189.706 30.9274 189.945 31.0741C190.184 31.2209 190.364 31.4122 190.486 31.6483C190.61 31.8843 190.672 32.1698 190.672 32.5048C190.672 33.1395 190.46 33.6308 190.036 33.9785C189.612 34.3262 189.026 34.5 188.28 34.5H186.94V33.232ZM183.974 28.5047V27.2368H187.266V28.5047H186.342V33.232H187.266V34.5H183.974V33.232H184.849V28.5047H183.974ZM188.667 30.5813H189.127V30.9162H188.667V30.5813ZM192.603 28.5047V27.2368H195.851V28.5047H194.971V33.232H195.851V34.5H192.603V33.232H193.478V28.5047H192.603ZM197.923 28.5047V27.2368H201.201V28.5047H200.292V33.232H203.254V34.5H197.923V33.232H198.799V28.5047H197.923ZM204.206 31.7248V34.5H202.713V31.7248H204.206ZM210.696 30.2655V31.4186H207.615V30.2655H210.696ZM211.533 31.9976H213.026V34.5H205.954V33.232H206.83V28.5047H205.954V27.2368H212.94V29.7392H211.447V28.5047H208.323V33.232H211.533V31.9976ZM227.477 27.2368H230.458V28.5047H229.879L228.003 34.5H226.166L224.281 28.5047L225.257 30.1602H224.357L225.276 28.5047L223.314 34.5H221.487L219.606 28.5047H219.032V27.2368H222.219V28.5047H221.18L222.97 34.5L221.903 32.8732H223.042L222.018 34.5L224.037 28.5047H223.094V27.2368H226.63V28.5047H225.721L227.721 34.5L226.625 32.8732H227.798L226.774 34.5L228.573 28.5047H227.477V27.2368ZM235.643 34.6196C235.075 34.6196 234.556 34.5287 234.083 34.3469C233.615 34.1651 233.209 33.9067 232.868 33.5718C232.527 33.2336 232.264 32.8349 232.079 32.3756C231.894 31.913 231.801 31.4043 231.801 30.8492C231.801 30.3006 231.894 29.7982 232.079 29.342C232.267 28.8859 232.53 28.492 232.868 28.1602C233.209 27.8285 233.615 27.5717 234.083 27.3899C234.556 27.208 235.075 27.1171 235.643 27.1171C236.211 27.1171 236.729 27.208 237.198 27.3899C237.667 27.5717 238.072 27.8285 238.414 28.1602C238.755 28.492 239.018 28.8859 239.203 29.342C239.388 29.7982 239.481 30.3006 239.481 30.8492C239.481 31.4043 239.388 31.913 239.203 32.3756C239.018 32.8349 238.755 33.2336 238.414 33.5718C238.072 33.9067 237.667 34.1651 237.198 34.3469C236.729 34.5287 236.211 34.6196 235.643 34.6196ZM235.638 33.189C236.091 33.189 236.489 33.0901 236.83 32.8923C237.174 32.6914 237.442 32.4154 237.634 32.0646C237.825 31.7137 237.921 31.3086 237.921 30.8492C237.921 30.3963 237.825 29.9976 237.634 29.6531C237.442 29.3054 237.174 29.0342 236.83 28.8396C236.489 28.6451 236.093 28.5478 235.643 28.5478C235.194 28.5478 234.796 28.6451 234.452 28.8396C234.111 29.0342 233.843 29.3054 233.648 29.6531C233.457 29.9976 233.361 30.3963 233.361 30.8492C233.361 31.3086 233.457 31.7137 233.648 32.0646C233.843 32.4154 234.111 32.6914 234.452 32.8923C234.793 33.0901 235.189 33.189 235.638 33.189ZM245.594 30.4904C245.855 30.551 246.082 30.6547 246.273 30.8014C246.464 30.9481 246.595 31.114 246.665 31.299L247.402 33.232H248.034V34.5H246.211L245.364 31.9402C245.297 31.7456 245.217 31.6116 245.125 31.5382C245.035 31.4649 244.9 31.4282 244.718 31.4282H244.168L245.594 30.4904ZM243.751 28.5047V27.2368H245.043C245.943 27.2368 246.619 27.4106 247.072 27.7583C247.528 28.106 247.756 28.5908 247.756 29.2129C247.756 29.4999 247.705 29.7583 247.603 29.988C247.504 30.2177 247.361 30.4154 247.173 30.5813C246.984 30.744 246.756 30.87 246.488 30.9593V31.122L245.115 31.4282H243.11V30.2751H244.995C245.26 30.2751 245.484 30.2416 245.665 30.1746C245.85 30.1076 245.989 30.0071 246.082 29.8732C246.174 29.7392 246.22 29.5701 246.22 29.366C246.22 29.0629 246.109 28.8444 245.885 28.7105C245.665 28.5733 245.372 28.5047 245.005 28.5047H243.751ZM241.115 28.5047V27.2368H244.364V28.5047H243.484V33.232H244.378V34.5H241.115V33.232H241.991V28.5047H241.115ZM249.856 28.5047V27.2368H253.091V28.5047H252.22V33.232H253.091V34.5H249.856V33.232H250.727V28.5047H249.856ZM254.397 30.0023L257.225 33.232H258.091V34.5H253.851V33.232H255.368L253.32 30.8157L254.397 30.0023ZM251.497 31.4808L255 28.5047H253.765V27.2368H257.713V28.5047H256.89L252.014 32.4808L251.497 31.4808ZM263.496 34.5957C262.88 34.5957 262.394 34.4681 262.036 34.2129C261.679 33.9577 261.467 33.5829 261.4 33.0885H261.18L261.347 32.2512C261.424 32.5797 261.633 32.8413 261.974 33.0359C262.315 33.2304 262.721 33.3277 263.189 33.3277C263.572 33.3277 263.861 33.2592 264.056 33.122C264.25 32.9848 264.347 32.7791 264.347 32.5048C264.347 32.3198 264.295 32.165 264.189 32.0406C264.084 31.913 263.915 31.8094 263.682 31.7296C263.449 31.6499 263.138 31.5861 262.749 31.5382C262.095 31.4681 261.552 31.3309 261.118 31.1268C260.684 30.9226 260.359 30.6563 260.142 30.3277C259.928 29.996 259.821 29.5988 259.821 29.1363C259.821 28.5111 260.02 28.0215 260.419 27.6674C260.821 27.3101 261.386 27.1315 262.113 27.1315C262.512 27.1315 262.853 27.1889 263.137 27.3037C263.421 27.4154 263.646 27.5844 263.811 27.8109C263.977 28.0374 264.079 28.3197 264.118 28.6578H264.333L264.161 29.4664C264.094 29.1411 263.896 28.8811 263.567 28.6865C263.239 28.4888 262.847 28.3899 262.39 28.3899C262.062 28.3899 261.807 28.4489 261.625 28.5669C261.446 28.6849 261.357 28.854 261.357 29.0741C261.357 29.2272 261.41 29.3644 261.515 29.4856C261.623 29.6068 261.796 29.7121 262.032 29.8014C262.268 29.8907 262.58 29.9657 262.969 30.0263C263.646 30.1092 264.197 30.2496 264.625 30.4473C265.056 30.6451 265.373 30.9083 265.577 31.2368C265.784 31.5654 265.888 31.9673 265.888 32.4426C265.888 33.1252 265.681 33.6547 265.266 34.0311C264.851 34.4075 264.261 34.5957 263.496 34.5957ZM259.85 34.5V32.2512H261.347V34.5H259.85ZM264.161 29.4664V27.2368H265.658V29.4664H264.161ZM273.932 30.2655V31.4186H269.382V30.2655H273.932ZM267.722 28.5047V27.2368H270.97V28.5047H270.09V33.232H270.97V34.5H267.722V33.232H268.597V28.5047H267.722ZM272.444 28.5047V27.2368H275.693V28.5047H274.813V33.232H275.693V34.5H272.444V33.232H273.32V28.5047H272.444ZM281.171 34.6196C280.603 34.6196 280.084 34.5287 279.611 34.3469C279.143 34.1651 278.737 33.9067 278.396 33.5718C278.055 33.2336 277.792 32.8349 277.607 32.3756C277.422 31.913 277.329 31.4043 277.329 30.8492C277.329 30.3006 277.422 29.7982 277.607 29.342C277.795 28.8859 278.058 28.492 278.396 28.1602C278.737 27.8285 279.143 27.5717 279.611 27.3899C280.084 27.208 280.603 27.1171 281.171 27.1171C281.739 27.1171 282.257 27.208 282.726 27.3899C283.195 27.5717 283.6 27.8285 283.942 28.1602C284.283 28.492 284.546 28.8859 284.731 29.342C284.916 29.7982 285.009 30.3006 285.009 30.8492C285.009 31.4043 284.916 31.913 284.731 32.3756C284.546 32.8349 284.283 33.2336 283.942 33.5718C283.6 33.9067 283.195 34.1651 282.726 34.3469C282.257 34.5287 281.739 34.6196 281.171 34.6196ZM281.166 33.189C281.619 33.189 282.017 33.0901 282.358 32.8923C282.702 32.6914 282.97 32.4154 283.162 32.0646C283.353 31.7137 283.449 31.3086 283.449 30.8492C283.449 30.3963 283.353 29.9976 283.162 29.6531C282.97 29.3054 282.702 29.0342 282.358 28.8396C282.017 28.6451 281.621 28.5478 281.171 28.5478C280.721 28.5478 280.324 28.6451 279.98 28.8396C279.639 29.0342 279.371 29.3054 279.176 29.6531C278.985 29.9976 278.889 30.3963 278.889 30.8492C278.889 31.3086 278.985 31.7137 279.176 32.0646C279.371 32.4154 279.639 32.6914 279.98 32.8923C280.321 33.0901 280.717 33.189 281.166 33.189ZM286.643 34.5V33.232H287.519V28.5047H286.643V27.2368H289.011V33.232H289.892V34.5H286.643ZM288.72 31.4186V30.2655H290.519C290.911 30.2655 291.208 30.1937 291.409 30.0502C291.613 29.9066 291.715 29.6881 291.715 29.3947C291.715 29.0821 291.605 28.8556 291.385 28.7152C291.165 28.5749 290.873 28.5047 290.509 28.5047H288.7V27.2368H290.567C291.463 27.2368 292.136 27.4186 292.586 27.7822C293.035 28.1427 293.26 28.6483 293.26 29.299C293.26 29.5605 293.214 29.8173 293.122 30.0693C293.032 30.3213 292.882 30.5494 292.672 30.7535C292.461 30.9545 292.179 31.1156 291.825 31.2368C291.474 31.358 291.037 31.4186 290.514 31.4186H288.72Z" fill="white"/>
<rect x="54.9863" y="39.9077" width="239.014" height="15.5879" fill="#00397B"/>
<path d="M65.3392 50.7915L62.975 44.7696L63.4514 44.219L65.7719 50.1622H65.5971L67.9219 44.219L68.3502 44.7696L65.9816 50.7915H65.3392ZM61.2882 50.7915V50.1928H62.3458V44.8177H61.2882V44.219H63.447L63.3727 44.8177H62.9619V50.1928H64.0588V50.7915H61.2882ZM67.2446 50.7915V50.1928H68.3633V44.8177H67.9044L67.9176 44.219H70.072V44.8177H69.0144V50.1928H70.072V50.7915H67.2446ZM76.8942 48.0952V48.672H73.3632V48.0952H76.8942ZM77.9474 50.1928H78.5811V50.7915H75.7799V50.1928H77.2613L75.0151 44.7346L75.4215 45.0143H74.7835L75.1899 44.7346L72.9437 50.1928H74.4252V50.7915H71.6546V50.1928H72.2926L74.7485 44.219H75.4871L77.9474 50.1928ZM85.7725 50.7915L81.4112 44.219H82.1716L86.5329 50.7915H85.7725ZM80.1658 44.8133V44.219H82.1672L82.1585 44.9313H81.8307V50.1928H82.8883V50.7915H80.1658V50.1928H81.2233V44.8133H80.1658ZM84.9029 44.8177V44.219H87.6647V44.8177H86.6072V50.7915H85.7813L85.5496 49.8956H85.9998V44.8177H84.9029ZM93.9111 48.0952V48.672H90.3801V48.0952H93.9111ZM94.9643 50.1928H95.5979V50.7915H92.7967V50.1928H94.2782L92.032 44.7346L92.4384 45.0143H91.8004L92.2068 44.7346L89.9606 50.1928H91.442V50.7915H88.6714V50.1928H89.3095L91.7654 44.219H92.504L94.9643 50.1928ZM100.191 50.8789C99.716 50.8789 99.279 50.7959 98.8799 50.6298C98.4837 50.4638 98.1385 50.2292 97.8442 49.9262C97.5529 49.6203 97.3271 49.2605 97.1669 48.8468C97.0066 48.4331 96.9265 47.9801 96.9265 47.4878C96.9265 46.9954 97.0052 46.5438 97.1625 46.133C97.3227 45.7223 97.5485 45.3683 97.8398 45.0711C98.1341 44.774 98.4822 44.5438 98.8843 44.3807C99.2892 44.2146 99.735 44.1316 100.222 44.1316C100.693 44.1316 101.101 44.2102 101.445 44.3675C101.789 44.5249 102.067 44.7507 102.28 45.0449C102.492 45.3362 102.638 45.6829 102.717 46.085H102.922L102.747 46.7973C102.613 46.1622 102.324 45.6669 101.878 45.3115C101.435 44.9531 100.889 44.774 100.239 44.774C99.7175 44.774 99.2601 44.889 98.8668 45.1192C98.4764 45.3464 98.1705 45.664 97.9491 46.0719C97.7306 46.4797 97.6213 46.9517 97.6213 47.4878C97.6213 47.8927 97.6854 48.2627 97.8136 48.5977C97.9418 48.9328 98.121 49.2227 98.3511 49.4674C98.5813 49.7121 98.8551 49.9015 99.1727 50.0355C99.4903 50.1695 99.8399 50.2365 100.222 50.2365C100.667 50.2365 101.069 50.1477 101.428 49.9699C101.786 49.7893 102.083 49.5373 102.319 49.2139C102.558 48.8905 102.718 48.5118 102.8 48.0777L103.298 48.2175C103.205 48.7507 103.014 49.2168 102.726 49.616C102.44 50.0151 102.08 50.3254 101.646 50.5468C101.215 50.7682 100.73 50.8789 100.191 50.8789ZM103.018 50.7915L102.782 49.2664V47.6363H103.438V50.7915H103.018ZM100.829 48.2132V47.6101H104.356V48.2132H100.829ZM102.747 46.7973V44.219H103.399V46.7973H102.747ZM110.211 47.1862V47.7674H107.222V47.1862H110.211ZM111.304 48.9036H111.955V50.7915H105.798V50.1928H106.855V44.8177H105.798V44.219H111.876V46.1068H111.225V44.8177H107.506V50.1928H111.304V48.9036ZM117.96 50.7915L115.596 44.7696L116.072 44.219L118.393 50.1622H118.218L120.543 44.219L120.971 44.7696L118.603 50.7915H117.96ZM113.909 50.7915V50.1928H114.967V44.8177H113.909V44.219H116.068L115.994 44.8177H115.583V50.1928H116.68V50.7915H113.909ZM119.866 50.7915V50.1928H120.984V44.8177H120.526L120.539 44.219H122.693V44.8177H121.636V50.1928H122.693V50.7915H119.866ZM129.021 47.1862V47.7674H126.032V47.1862H129.021ZM130.113 48.9036H130.764V50.7915H124.607V50.1928H125.665V44.8177H124.607V44.219H130.686V46.1068H130.035V44.8177H126.316V50.1928H130.113V48.9036ZM138.325 50.7915L133.964 44.219H134.724L139.086 50.7915H138.325ZM132.719 44.8133V44.219H134.72L134.711 44.9313H134.384V50.1928H135.441V50.7915H132.719V50.1928H133.776V44.8133H132.719ZM137.456 44.8177V44.219H140.218V44.8177H139.16V50.7915H138.334L138.102 49.8956H138.553V44.8177H137.456ZM148.013 44.219V46.321H147.357V44.8177H145.233V50.1928H146.286V50.7915H143.52V50.1928H144.578V44.8177H142.458V46.321H141.803V44.219H148.013ZM153.46 44.8177V44.219H156.226V44.8177H155.169V50.1928H156.226V50.7915H153.46V50.1928H154.517V44.8177H153.46ZM163.747 50.7915L159.386 44.219H160.146L164.507 50.7915H163.747ZM158.14 44.8133V44.219H160.142L160.133 44.9313H159.805V50.1928H160.863V50.7915H158.14V50.1928H159.198V44.8133H158.14ZM162.877 44.8177V44.219H165.639V44.8177H164.582V50.7915H163.756L163.524 49.8956H163.974V44.8177H162.877ZM171.332 47.1862V47.7674H168.667V47.1862H171.332ZM172.98 44.219V46.1068H172.324V44.8177H168.951V50.1928H170.218V50.7915H167.242V50.1928H168.299V44.8177H167.242V44.219H172.98ZM177.963 50.8833C177.465 50.8833 177.009 50.8017 176.595 50.6386C176.182 50.4725 175.825 50.2394 175.525 49.9393C175.225 49.6364 174.993 49.278 174.83 48.8643C174.667 48.4477 174.585 47.9889 174.585 47.4878C174.585 46.9925 174.667 46.5395 174.83 46.1287C174.993 45.7179 175.225 45.3639 175.525 45.0668C175.825 44.7667 176.18 44.5351 176.591 44.3719C177.005 44.2088 177.462 44.1272 177.963 44.1272C178.464 44.1272 178.92 44.2088 179.331 44.3719C179.745 44.5351 180.102 44.7667 180.402 45.0668C180.702 45.3639 180.933 45.7179 181.097 46.1287C181.263 46.5395 181.346 46.9925 181.346 47.4878C181.346 47.9889 181.264 48.4477 181.101 48.8643C180.938 49.278 180.705 49.6364 180.402 49.9393C180.102 50.2394 179.745 50.4725 179.331 50.6386C178.92 50.8017 178.464 50.8833 177.963 50.8833ZM177.963 50.2452C178.496 50.2452 178.964 50.1287 179.366 49.8956C179.771 49.6597 180.086 49.3348 180.31 48.9211C180.537 48.5074 180.651 48.0296 180.651 47.4878C180.651 46.9517 180.537 46.4797 180.31 46.0719C180.086 45.6611 179.771 45.3406 179.366 45.1105C178.964 44.8803 178.496 44.7652 177.963 44.7652C177.433 44.7652 176.965 44.8803 176.56 45.1105C176.158 45.3406 175.844 45.6611 175.617 46.0719C175.389 46.4797 175.276 46.9517 175.276 47.4878C175.276 48.0296 175.389 48.5074 175.617 48.9211C175.844 49.3348 176.158 49.6597 176.56 49.8956C176.963 50.1287 177.43 50.2452 177.963 50.2452ZM186.751 47.3567C186.961 47.38 187.144 47.4455 187.301 47.5533C187.459 47.6582 187.57 47.8053 187.634 47.9947L188.438 50.1928H189.159V50.7915H187.957L187.109 48.3705C187.028 48.1462 186.93 47.9903 186.816 47.9029C186.706 47.8126 186.541 47.7674 186.323 47.7674H185.999L186.751 47.3567ZM185.278 44.8177V44.219H186.471C187.22 44.219 187.782 44.369 188.158 44.6691C188.534 44.9692 188.722 45.3814 188.722 45.9058C188.722 46.1884 188.663 46.4462 188.547 46.6793C188.433 46.9095 188.27 47.1032 188.057 47.2605C187.848 47.4149 187.596 47.5213 187.301 47.5795V47.6975L186.441 47.7674H184.553V47.1862H186.436C186.786 47.1862 187.082 47.1367 187.323 47.0376C187.565 46.9386 187.747 46.7973 187.87 46.6137C187.992 46.4302 188.053 46.2102 188.053 45.9539C188.053 45.578 187.91 45.2954 187.625 45.1061C187.342 44.9138 186.949 44.8177 186.445 44.8177H185.278ZM182.936 44.8177V44.219H185.702V44.8177H184.644V50.1928H185.702V50.7915H182.936V50.1928H183.993V44.8177H182.936ZM194.894 50.7915L192.529 44.7696L193.006 44.219L195.326 50.1622H195.151L197.476 44.219L197.904 44.7696L195.536 50.7915H194.894ZM190.843 50.7915V50.1928H191.9V44.8177H190.843V44.219H193.001L192.927 44.8177H192.516V50.1928H193.613V50.7915H190.843ZM196.799 50.7915V50.1928H197.918V44.8177H197.459L197.472 44.219H199.626V44.8177H198.569V50.1928H199.626V50.7915H196.799ZM206.449 48.0952V48.672H202.918V48.0952H206.449ZM207.502 50.1928H208.135V50.7915H205.334V50.1928H206.816L204.569 44.7346L204.976 45.0143H204.338L204.744 44.7346L202.498 50.1928H203.979V50.7915H201.209V50.1928H201.847L204.303 44.219H205.041L207.502 50.1928ZM215.05 44.219V46.321H214.395V44.8177H212.271V50.1928H213.324V50.7915H210.558V50.1928H211.615V44.8177H209.496V46.321H208.841V44.219H215.05ZM216.739 44.8177V44.219H219.505V44.8177H218.448V50.1928H219.505V50.7915H216.739V50.1928H217.797V44.8177H216.739ZM224.473 50.8833C223.975 50.8833 223.519 50.8017 223.105 50.6386C222.692 50.4725 222.335 50.2394 222.035 49.9393C221.735 49.6364 221.503 49.278 221.34 48.8643C221.177 48.4477 221.095 47.9889 221.095 47.4878C221.095 46.9925 221.177 46.5395 221.34 46.1287C221.503 45.7179 221.735 45.3639 222.035 45.0668C222.335 44.7667 222.69 44.5351 223.101 44.3719C223.515 44.2088 223.972 44.1272 224.473 44.1272C224.974 44.1272 225.43 44.2088 225.841 44.3719C226.255 44.5351 226.612 44.7667 226.912 45.0668C227.212 45.3639 227.443 45.7179 227.606 46.1287C227.772 46.5395 227.856 46.9925 227.856 47.4878C227.856 47.9889 227.774 48.4477 227.611 48.8643C227.448 49.278 227.215 49.6364 226.912 49.9393C226.612 50.2394 226.255 50.4725 225.841 50.6386C225.43 50.8017 224.974 50.8833 224.473 50.8833ZM224.473 50.2452C225.006 50.2452 225.474 50.1287 225.876 49.8956C226.281 49.6597 226.595 49.3348 226.82 48.9211C227.047 48.5074 227.161 48.0296 227.161 47.4878C227.161 46.9517 227.047 46.4797 226.82 46.0719C226.595 45.6611 226.281 45.3406 225.876 45.1105C225.474 44.8803 225.006 44.7652 224.473 44.7652C223.943 44.7652 223.475 44.8803 223.07 45.1105C222.668 45.3406 222.354 45.6611 222.126 46.0719C221.899 46.4797 221.786 46.9517 221.786 47.4878C221.786 48.0296 221.899 48.5074 222.126 48.9211C222.354 49.3348 222.668 49.6597 223.07 49.8956C223.472 50.1287 223.94 50.2452 224.473 50.2452ZM235.052 50.7915L230.691 44.219H231.452L235.813 50.7915H235.052ZM229.446 44.8133V44.219H231.447L231.438 44.9313H231.111V50.1928H232.168V50.7915H229.446V50.1928H230.503V44.8133H229.446ZM234.183 44.8177V44.219H236.945V44.8177H235.887V50.7915H235.061L234.83 49.8956H235.28V44.8177H234.183ZM245.519 50.8789C244.899 50.8789 244.405 50.7522 244.038 50.4987C243.671 50.2423 243.445 49.8942 243.361 49.4543H243.208L243.33 48.7988C243.412 49.2736 243.637 49.6436 244.007 49.9088C244.377 50.1739 244.849 50.3064 245.423 50.3064C245.936 50.3064 246.328 50.2015 246.599 49.9918C246.87 49.7791 247.005 49.4747 247.005 49.0784C247.005 48.8162 246.944 48.5977 246.822 48.4229C246.699 48.2452 246.501 48.101 246.227 47.9903C245.956 47.8767 245.594 47.7864 245.139 47.7194C244.577 47.6378 244.115 47.5154 243.754 47.3523C243.396 47.1891 243.129 46.9808 242.954 46.7274C242.779 46.4739 242.692 46.1724 242.692 45.8228C242.692 45.2896 242.874 44.8745 243.238 44.5773C243.605 44.2801 244.109 44.1316 244.75 44.1316C245.152 44.1316 245.493 44.1898 245.773 44.3064C246.055 44.42 246.278 44.5846 246.441 44.8002C246.605 45.0158 246.711 45.2721 246.76 45.5693H246.909L246.782 46.2117C246.707 45.7397 246.495 45.3712 246.149 45.1061C245.805 44.8381 245.368 44.704 244.838 44.704C244.38 44.704 244.019 44.8002 243.754 44.9925C243.489 45.1818 243.356 45.4484 243.356 45.7922C243.356 46.0165 243.419 46.2102 243.544 46.3734C243.669 46.5336 243.87 46.6706 244.147 46.7842C244.424 46.8949 244.788 46.991 245.24 47.0726C245.822 47.1629 246.291 47.2896 246.647 47.4528C247.002 47.6159 247.262 47.8272 247.425 48.0864C247.591 48.3428 247.674 48.6589 247.674 49.0347C247.674 49.6174 247.486 50.0704 247.11 50.3938C246.734 50.7172 246.204 50.8789 245.519 50.8789ZM242.674 50.7915V48.7988H243.33V50.7915H242.674ZM246.782 46.2117V44.219H247.438V46.2117H246.782ZM255.176 44.8177L252.786 47.9029H252.218L249.823 44.8177H249.215V44.219H251.824V44.8177H250.614L252.703 47.5315L252.178 47.2867H252.816L252.375 47.5315L254.46 44.8177H253.166V44.219H255.784V44.8177H255.176ZM252.825 47.4178V50.1928H253.878V50.7915H251.112V50.1928H252.17V47.4178H252.825ZM260.266 50.8789C259.645 50.8789 259.151 50.7522 258.784 50.4987C258.417 50.2423 258.192 49.8942 258.107 49.4543H257.954L258.076 48.7988C258.158 49.2736 258.384 49.6436 258.754 49.9088C259.124 50.1739 259.596 50.3064 260.17 50.3064C260.682 50.3064 261.074 50.2015 261.345 49.9918C261.616 49.7791 261.752 49.4747 261.752 49.0784C261.752 48.8162 261.69 48.5977 261.568 48.4229C261.446 48.2452 261.248 48.101 260.974 47.9903C260.703 47.8767 260.34 47.7864 259.886 47.7194C259.323 47.6378 258.862 47.5154 258.5 47.3523C258.142 47.1891 257.875 46.9808 257.701 46.7274C257.526 46.4739 257.438 46.1724 257.438 45.8228C257.438 45.2896 257.621 44.8745 257.985 44.5773C258.352 44.2801 258.856 44.1316 259.497 44.1316C259.899 44.1316 260.24 44.1898 260.519 44.3064C260.802 44.42 261.025 44.5846 261.188 44.8002C261.351 45.0158 261.457 45.2721 261.507 45.5693H261.656L261.529 46.2117C261.453 45.7397 261.242 45.3712 260.895 45.1061C260.551 44.8381 260.114 44.704 259.584 44.704C259.127 44.704 258.765 44.8002 258.5 44.9925C258.235 45.1818 258.103 45.4484 258.103 45.7922C258.103 46.0165 258.165 46.2102 258.291 46.3734C258.416 46.5336 258.617 46.6706 258.894 46.7842C259.17 46.8949 259.535 46.991 259.986 47.0726C260.569 47.1629 261.038 47.2896 261.393 47.4528C261.749 47.6159 262.008 47.8272 262.171 48.0864C262.337 48.3428 262.42 48.6589 262.42 49.0347C262.42 49.6174 262.232 50.0704 261.857 50.3938C261.481 50.7172 260.95 50.8789 260.266 50.8789ZM257.421 50.7915V48.7988H258.076V50.7915H257.421ZM261.529 46.2117V44.219H262.184V46.2117H261.529ZM270.4 44.219V46.321H269.745V44.8177H267.621V50.1928H268.674V50.7915H265.908V50.1928H266.965V44.8177H264.846V46.321H264.19V44.219H270.4ZM276.503 47.1862V47.7674H273.514V47.1862H276.503ZM277.595 48.9036H278.246V50.7915H272.089V50.1928H273.147V44.8177H272.089V44.219H278.168V46.1068H277.517V44.8177H273.798V50.1928H277.595V48.9036ZM284.252 50.7915L281.887 44.7696L282.364 44.219L284.684 50.1622H284.509L286.834 44.219L287.263 44.7696L284.894 50.7915H284.252ZM280.201 50.7915V50.1928H281.258V44.8177H280.201V44.219H282.359L282.285 44.8177H281.874V50.1928H282.971V50.7915H280.201ZM286.157 50.7915V50.1928H287.276V44.8177H286.817L286.83 44.219H288.984V44.8177H287.927V50.1928H288.984V50.7915H286.157Z" fill="white"/>
<path d="M44.3884 34.8257C44.4794 35.0617 44.5051 35.3007 44.5051 35.5496C44.5031 39.8772 44.5051 44.2039 44.5031 48.5306C44.5031 49.2654 44.3291 49.4382 43.608 49.4392C42.4054 49.4412 41.2017 49.452 40 49.4323C39.6548 49.4264 39.548 49.5261 39.553 49.8737C39.5718 51.1408 39.5737 52.4079 39.5569 53.674C39.5223 56.2606 37.5274 58.1864 35.0034 58.0866C32.9204 58.0037 31.068 56.2902 30.9394 54.2162C30.8504 52.7901 30.885 51.3551 30.8979 49.9241C30.9008 49.531 30.7861 49.4303 30.3984 49.4313C26.1969 49.4451 21.9955 49.4461 17.794 49.4293C17.3875 49.4283 17.2975 49.5538 17.3054 49.932C17.3252 50.885 17.3371 51.841 17.2916 52.7931C17.1551 55.6068 14.9426 57.8763 12.1723 58.0787C9.35452 58.2861 6.78301 56.3238 6.26871 53.5456C6.17673 53.0479 6.17376 52.5294 6.17277 52.0208C6.16783 42.051 6.16585 32.0801 6.1797 22.1103C6.1797 21.66 6.03925 21.415 5.65353 21.178C2.62903 19.3154 0.780514 16.638 0.172253 13.1301C-0.786129 7.60245 2.34023 2.29706 7.42095 0.260629C8.35262 -0.112684 8.66516 0.0937248 8.66516 1.10503C8.66615 4.49349 8.67209 7.88293 8.65725 11.2724C8.65527 11.6763 8.75418 11.8037 9.17452 11.7978C10.8875 11.7731 12.6016 11.7731 14.3146 11.7978C14.7389 11.8037 14.8299 11.6674 14.8279 11.2684C14.8131 7.86318 14.82 4.45793 14.82 1.0517C14.82 0.821587 14.7923 0.580612 14.9248 0.379141C15.1216 0.0779231 15.3936 0.00385309 15.7398 0.133229C18.4181 1.13169 20.5515 2.82543 21.9065 5.33393C24.3217 9.8048 24.0299 14.1601 21.0608 18.311C21.0233 18.3634 20.9936 18.4216 20.9629 18.4779C20.957 18.4898 20.9649 18.5085 20.9738 18.5895H24.1496C27.4619 18.5895 30.7732 18.5875 34.0855 18.5905C36.6818 18.5915 38.6341 19.9099 39.5718 22.3266C41.1849 26.4903 42.7812 30.66 44.3884 34.8257Z" fill="white"/>
<path d="M44.3884 34.8257C42.7812 30.66 41.1849 26.4903 39.5718 22.3266C38.6341 19.9099 36.6818 18.5915 34.0855 18.5905C30.7732 18.5875 27.4619 18.5895 24.1496 18.5895H20.9738C20.9649 18.5085 20.957 18.4898 20.9629 18.4779C20.9936 18.4216 21.0233 18.3633 21.0608 18.311C24.0299 14.1601 24.3217 9.8048 21.9065 5.33393C20.5515 2.82543 18.4181 1.13169 15.7398 0.133229C15.3936 0.0038531 15.1216 0.0779231 14.9248 0.379141C14.7923 0.580612 14.82 0.821586 14.82 1.0517C14.82 4.45793 14.8131 7.86318 14.8279 11.2684C14.8299 11.6674 14.7389 11.8037 14.3146 11.7978C12.6016 11.7731 10.8875 11.7731 9.17452 11.7978C8.75418 11.8037 8.65527 11.6763 8.65725 11.2724C8.67209 7.88293 8.66615 4.49349 8.66516 1.10503C8.66516 0.0937248 8.35262 -0.112684 7.42095 0.260629C2.34023 2.29706 -0.78613 7.60245 0.172253 13.1301C0.780514 16.638 2.62903 19.3154 5.65353 21.178C6.03925 21.415 6.1797 21.66 6.1797 22.1103C6.16585 32.0801 6.16783 42.051 6.17277 52.0208C6.17376 52.5294 6.17673 53.0479 6.26871 53.5456C6.78301 56.3238 9.35453 58.2861 12.1723 58.0787C14.9426 57.8763 17.1551 55.6068 17.2916 52.7931C17.3371 51.841 17.3252 50.885 17.3054 49.932C17.2975 49.5537 17.3875 49.4283 17.794 49.4293C21.9955 49.4461 26.1969 49.4451 30.3984 49.4313C30.7861 49.4303 30.9008 49.531 30.8979 49.9241C30.885 51.3551 30.8504 52.7901 30.9394 54.2162C31.068 56.2902 32.9204 58.0037 35.0034 58.0866C37.5274 58.1864 39.5223 56.2606 39.5569 53.674C39.5737 52.4079 39.5718 51.1408 39.553 49.8737C39.548 49.5261 39.6548 49.4263 40 49.4323C41.2017 49.452 42.4054 49.4412 43.608 49.4392C44.3291 49.4382 44.5031 49.2654 44.5031 48.5306C44.5051 44.2039 44.5031 39.8772 44.5051 35.5496C44.5051 35.3007 44.4794 35.0617 44.3884 34.8257ZM16.0494 21.5464C16.0681 25.3783 16.0592 29.2102 16.0592 33.0421V37.1841C16.0592 40.7858 16.0731 44.3876 16.0533 47.9894C16.0434 49.6495 16.1374 51.3117 16.0177 52.9689C15.8654 55.0804 13.9991 56.7968 11.8568 56.8314C9.62651 56.8679 7.71568 55.2404 7.4793 53.0953C7.43974 52.7368 7.42688 52.3734 7.42589 52.0129C7.42391 41.8781 7.41897 31.7424 7.43677 21.6076C7.43776 20.9805 7.22611 20.6348 6.68312 20.3247C3.2007 18.3337 1.32943 15.3126 1.27504 11.3079C1.22262 7.38419 2.98608 4.36707 6.27662 2.23879C6.60202 2.02745 7.01742 1.62154 7.29929 1.7766C7.59601 1.94054 7.3982 2.49754 7.40018 2.87876C7.41106 5.92254 7.40611 8.96633 7.40611 12.0101C7.4071 12.8703 7.5604 13.0264 8.40307 13.0264C10.6601 13.0264 12.918 13.0273 15.175 13.0254C15.8891 13.0244 16.078 12.8377 16.078 12.1128C16.081 8.80634 16.079 5.49886 16.08 2.19238C16.08 1.61957 16.082 1.61957 16.6052 1.88227C20.5485 3.8634 22.8728 8.52685 22.0974 12.8664C21.498 16.2222 19.69 18.7159 16.7288 20.3731C16.2244 20.6546 16.0464 20.9854 16.0494 21.5464ZM17.2965 32.8919C17.3143 30.342 17.3134 27.792 17.2975 25.243C17.2956 24.8637 17.3826 24.7403 17.7871 24.7413C22.8945 24.7561 28.0009 24.7541 33.1084 24.7442C33.4367 24.7432 33.595 24.8302 33.7156 25.1551C34.677 27.7564 35.6532 30.3528 36.6501 32.9413C36.8173 33.3749 36.6877 33.4134 36.3 33.4114C33.2191 33.3996 30.1383 33.4055 27.0574 33.4055C23.9765 33.4055 20.8957 33.3966 17.8158 33.4144C17.4004 33.4173 17.2936 33.2988 17.2965 32.8919ZM38.2583 53.9535C38.2286 55.5287 36.8212 56.8343 35.2022 56.8245C33.6009 56.8156 32.2281 55.5149 32.2034 53.9525C32.1826 52.5886 32.2054 51.2238 32.1895 49.8589C32.1866 49.536 32.2924 49.4273 32.6148 49.4333C33.4872 49.4501 34.3605 49.4392 35.2338 49.4392C36.1062 49.4392 36.9795 49.451 37.8518 49.4333C38.1762 49.4263 38.2781 49.537 38.2741 49.8589C38.2583 51.2238 38.283 52.5887 38.2583 53.9535ZM42.7228 48.2156C38.5708 48.2017 34.4179 48.2077 30.2659 48.2077C26.1297 48.2077 21.9935 48.2007 17.8573 48.2175C17.4221 48.2195 17.3005 48.1109 17.3064 47.6714C17.3331 45.9609 17.3312 44.2493 17.3074 42.5388C17.3015 42.1122 17.4439 42.0243 17.8415 42.0272C19.8849 42.046 21.9282 42.0391 23.9716 42.0342C24.5749 42.0322 24.9062 41.5562 24.6342 41.1038C24.4661 40.8253 24.1961 40.7997 23.9024 40.7997C21.8926 40.8046 19.8819 40.7858 17.8722 40.8145C17.3974 40.8214 17.3025 40.6683 17.3084 40.2318C17.3312 38.5539 17.3321 36.8749 17.3074 35.197C17.3005 34.7516 17.4123 34.6193 17.8761 34.6202C24.3524 34.637 30.8286 34.6311 37.3039 34.6311C38.2791 34.6311 38.4878 34.3408 38.1465 33.4282C36.9913 30.336 35.8243 27.2468 34.676 24.1517C34.499 23.6747 34.2032 23.5157 33.7038 23.5166C28.4312 23.5295 23.1586 23.5196 17.885 23.5344C17.438 23.5354 17.343 23.4169 17.2955 22.9695C17.1877 21.9503 17.4172 21.181 18.4478 20.7919C18.5526 20.7524 18.6555 20.6783 18.7297 20.5943C19.3646 19.8724 20.1737 19.7964 21.0856 19.8052C25.3859 19.8428 29.6873 19.821 33.9886 19.822C36.1675 19.823 37.6411 20.8274 38.4245 22.855C39.9812 26.8844 41.5311 30.9167 43.0888 34.9461C43.1917 35.2118 43.249 35.4755 43.249 35.7609C43.2451 39.7429 43.2401 43.7249 43.2559 47.7069C43.2579 48.1336 43.1195 48.2175 42.7228 48.2156Z" fill="#00397B"/>
<path d="M43.2492 35.7615C43.2492 35.4761 43.1918 35.2124 43.0889 34.9467C41.5312 30.9173 39.9814 26.8849 38.4246 22.8555C37.6413 20.828 36.1676 19.8236 33.9888 19.8226C29.6874 19.8216 25.3861 19.8433 21.0857 19.8058C20.1738 19.7969 19.3648 19.873 18.7298 20.5949C18.6556 20.6788 18.5528 20.7529 18.4479 20.7924C17.4173 21.1815 17.1879 21.9509 17.2957 22.9701C17.3432 23.4175 17.4381 23.536 17.8852 23.535C23.1587 23.5202 28.4313 23.5301 33.7039 23.5172C34.2034 23.5162 34.4991 23.6752 34.6761 24.1522C35.8244 27.2474 36.9915 30.3366 38.1467 33.4288C38.4879 34.3413 38.2792 34.6317 37.304 34.6317C30.8288 34.6317 24.3525 34.6376 17.8763 34.6208C17.4124 34.6198 17.3006 34.7522 17.3076 35.1976C17.3323 36.8755 17.3313 38.5544 17.3086 40.2324C17.3026 40.6689 17.3976 40.822 17.8723 40.815C19.882 40.7864 21.8928 40.8052 23.9025 40.8002C24.1962 40.8002 24.4663 40.8259 24.6344 41.1044C24.9064 41.5567 24.575 42.0327 23.9717 42.0347C21.9284 42.0397 19.885 42.0466 17.8416 42.0278C17.444 42.0248 17.3016 42.1127 17.3076 42.5394C17.3313 44.2499 17.3333 45.9614 17.3066 47.6719C17.3006 48.1114 17.4223 48.2201 17.8575 48.2181C21.9936 48.2013 26.1298 48.2082 30.266 48.2082C34.418 48.2082 38.571 48.2023 42.723 48.2161C43.1196 48.2181 43.2581 48.1341 43.2561 47.7075C43.2403 43.7255 43.2452 39.7435 43.2492 35.7615ZM35.2557 44.5027C34.6306 44.5097 34.0056 44.5037 33.2153 44.5037C32.4973 44.4405 31.6032 44.6242 30.7269 44.4C29.2097 44.0119 28.2652 42.5947 28.4551 40.9977C28.6331 39.5055 29.9297 38.351 31.4618 38.3381C32.7287 38.3283 33.9957 38.3273 35.2626 38.3381C36.9678 38.3529 38.3277 39.7307 38.3247 41.4234C38.3227 43.1191 36.9648 44.484 35.2557 44.5027Z" fill="#FEC111"/>
<path d="M35.2343 49.4402C36.1066 49.4402 36.98 49.4521 37.8523 49.4343C38.1767 49.4274 38.2786 49.538 38.2756 49.86C38.2598 51.2248 38.2845 52.5897 38.2598 53.9536C38.2311 55.5288 36.8227 56.8344 35.2036 56.8255C33.6034 56.8166 32.2296 55.516 32.2058 53.9536C32.1851 52.5887 32.2078 51.2239 32.192 49.859C32.188 49.536 32.2939 49.4274 32.6173 49.4333C33.4886 49.4511 34.361 49.4402 35.2343 49.4402Z" fill="#0E607D"/>
<path d="M35.2639 38.3379C33.9969 38.327 32.73 38.328 31.463 38.3379C29.931 38.3507 28.6343 39.5052 28.4563 40.9975C28.2664 42.5944 29.2109 44.0116 30.7281 44.3998C31.6044 44.6239 32.4985 44.4402 33.2166 44.5035C34.0068 44.5035 34.6319 44.5094 35.257 44.5025C36.966 44.4837 38.324 43.1188 38.326 41.4231C38.3289 39.7304 36.969 38.3527 35.2639 38.3379ZM35.159 43.265C33.9593 43.2867 32.7577 43.2848 31.557 43.266C30.4947 43.2482 29.6837 42.4334 29.6867 41.431C29.6896 40.4049 30.4621 39.6158 31.5342 39.5753C32.1593 39.5516 32.7844 39.5704 33.4094 39.5704C33.4094 39.5704 33.4094 39.5694 33.4094 39.5684C33.9851 39.5684 34.5617 39.5605 35.1363 39.5704C36.2341 39.5901 37.06 40.3852 37.057 41.4073C37.055 42.4502 36.2628 43.2452 35.159 43.265Z" fill="#00397B"/>
<path d="M33.4098 39.5687C33.9854 39.5687 34.561 39.5598 35.1367 39.5707C36.2335 39.5904 37.0594 40.3855 37.0574 41.4076C37.0544 42.4505 36.2632 43.2456 35.1594 43.2653C33.9587 43.287 32.758 43.2851 31.5573 43.2663C30.4951 43.2495 29.6831 42.4347 29.686 41.4323C29.689 40.4062 30.4615 39.6171 31.5346 39.5756C32.1587 39.5519 32.7847 39.5717 33.4098 39.5717C33.4098 39.5697 33.4098 39.5697 33.4098 39.5687Z" fill="#EE7949"/>
</svg>
